<?xml version="1.0" standalone="no"?>
<!DOCTYPE svg PUBLIC "-//W3C//DTD SVG 20010904//EN"
 "http://www.w3.org/TR/2001/REC-SVG-20010904/DTD/svg10.dtd">
<svg version="1.0" xmlns="http://www.w3.org/2000/svg"
 width="500.000000pt" height="500.000000pt" viewBox="0 0 500.000000 500.000000"
 preserveAspectRatio="xMidYMid meet">
<metadata>
Created by potrace 1.14, written by Peter Selinger 2001-2017
</metadata>
<g transform="translate(0.000000,500.000000) scale(0.100000,-0.100000)"
fill="#000000" stroke="none">
<path d="M2335 4243 c-225 -15 -497 -70 -650 -132 -220 -90 -350 -158 -502
-267 -152 -110 -250 -202 -367 -349 -259 -323 -387 -684 -387 -1089 0 -431
128 -786 409 -1141 67 -84 216 -232 290 -288 42 -32 52 -45 48 -61 -3 -12 -6
-34 -6 -51 0 -21 -13 -44 -46 -80 -25 -27 -62 -72 -83 -100 -48 -64 -171 -263
-171 -276 0 -6 -5 -7 -12 -3 -7 5 -8 3 -4 -5 5 -7 0 -19 -10 -27 -11 -9 -12
-12 -4 -8 12 6 13 4 2 -7 -6 -7 -12 -21 -12 -32 0 -10 -4 -15 -10 -12 -6 3 -7
-1 -4 -9 3 -9 1 -16 -6 -16 -6 0 -9 -4 -5 -10 3 -5 1 -17 -4 -27 -19 -36 -40
-101 -34 -107 4 -3 1 -6 -6 -6 -7 0 -9 -5 -6 -10 3 -6 -2 -10 -12 -11 -16 0
-16 -1 2 -9 11 -5 14 -9 6 -9 -8 -1 -11 -7 -7 -16 3 -9 -3 -24 -14 -35 -11
-11 -15 -20 -10 -20 6 0 10 -7 10 -15 0 -13 200 -15 1768 -13 l1767 3 0 38 c0
20 -3 37 -7 37 -5 0 -8 9 -8 21 0 11 -4 18 -8 15 -5 -3 -9 1 -9 9 0 8 4 12 8
10 4 -3 2 6 -4 20 -7 14 -15 25 -18 25 -3 0 -5 11 -4 25 2 17 -2 25 -13 25 -8
0 -12 3 -9 7 4 3 1 13 -6 21 -10 13 -9 14 3 7 12 -6 12 -5 3 5 -6 7 -9 19 -6
28 4 10 2 13 -5 8 -11 -6 -15 5 -11 30 0 4 -3 10 -8 13 -13 10 -33 49 -33 66
0 10 -5 13 -12 9 -8 -5 -9 -2 -5 9 3 10 2 17 -4 17 -6 0 -8 4 -5 9 3 5 -1 12
-10 15 -8 3 -13 10 -10 15 4 5 1 11 -4 13 -6 2 -12 13 -13 25 0 12 -4 20 -8
17 -4 -2 -10 8 -13 21 -4 16 -11 23 -18 19 -8 -5 -9 -2 -5 10 4 9 3 15 -2 11
-5 -3 -15 8 -22 24 -7 16 -17 27 -21 25 -7 -5 -8 -1 -8 21 0 12 -66 72 -74 67
-5 -3 -6 0 -2 6 3 6 -5 19 -19 30 -13 11 -21 22 -18 26 3 3 2 6 -3 6 -5 0 -10
22 -11 49 -3 48 -2 49 60 101 93 79 227 217 277 285 24 33 46 62 50 65 13 10
120 190 160 270 48 96 112 282 134 390 88 435 18 864 -202 1250 -25 44 -130
200 -142 210 -3 3 -25 30 -50 60 -378 461 -984 742 -1625 753 -71 1 -148 1
-170 0z"/>
</g>
</svg>
